<?xml version="1.0" encoding="UTF-8"?>
<svg id="Layer_1" xmlns="http://www.w3.org/2000/svg" version="1.1" viewBox="0 0 512 512">
  <!-- Generator: Adobe Illustrator 29.5.0, SVG Export Plug-In . SVG Version: 2.1.0 Build 137)  -->
  <defs>
    <style>
      .st0 {
        fill: #fa7116;
      }

      .st1 {
        fill: #dfca47;
      }

      .st2 {
        fill: #55b846;
      }

      .st3 {
        fill: #f9ab62;
      }

      .st4 {
        fill: #f2f2f2;
      }

      .st5 {
        fill: #4b374d;
      }

      .st6 {
        fill: #fdce0c;
      }

      .st7 {
        fill: #fb9017;
      }

      .st8 {
        fill: #653b22;
      }

      .st9 {
        fill: #3ca2cf;
      }

      .st10 {
        fill: #e6e6e6;
      }
    </style>
  </defs>
  <path class="st6" d="M413.93,426.32c.12-6.21-.03-16.76-1.85-23.15-.63-2.21-4.4-10.18-5.84-11.47,1.73-8.94,3.64-17.94,5.13-26.93,2.42-5.64,3.61-12.87,4.75-18.97,2.11-11.21,3.25-30.69,6.82-40.32.37-.99,2.57-2.03,3.81-3.55,9.27-11.3,13.14-16.05,11.54-32.06-1.17-11.76-8.77-21.18-14.81-30.74-1.44-2.29-2.31-8.73-4.44-3.27-3.75,9.61-9.52,16.53-15.38,25.03-8.79,12.75-12.14,13.13-8.98,30.78.19,1.05-.33,3.46,0,3.85.28.33,2.15-.29,2.56,0,.21.15-.2.97,0,1.28,4.69,7.4.27,9.45-.97,16.4-.35,1.92-.02,3.95-.31,5.4-.34,1.72-.91,3.41-1.28,5.13l-17.95,61.55c-.73.15-9.85,4.73-10.26,5.13-6.66-8.9-13.44-20.83-21.8-28.21,14.59-.69,24.66-15.37,25.69-28.8,1.31-16.95-9.47-32.1-13.81-47.85-3.84-13.92-4.77-29.77-8.04-43.9,5.7-10.67,3.44-28.61-5.13-37.19.54-20.7-12.91-52.06-34.62-57.7,6.71-18,7.63-30.47-1.54-47.83-2.27-4.31-6.8-11.94-11.29-13.72-.4-.45-.86-.85-1.28-1.28-1.95-2.01-2.49-3.14-5.13-5.13-3.92-2.96-14.67-8.69-19.23-10.26-.66-.23-1.84.21-2.56,0-1.3-.37-2.84-1.06-3.85-1.28-1.11-.24-2.26-1.04-3.85-1.28-1.68-2.6-4.34-2.46-7-2.62-9.56-.58-22.77-1.06-31.47,2.62-8.2,1.28-16.71,4.59-24.36,7.69-10.72,4.35-23.78,11.71-32.46,19.47-1.65,1.47-3.56,1.98-3.44,4.89-1.41,1.26-3.97,2.6-5.13,3.85-.71-.14-2.38.22-2.56,0-.35-.41,0-2.4-1.85-3.88-14.58-11.68-26.64,8.37-10.97,15.42.25.34,1.05.5,1.28,1.28.08.27.07,1,0,1.28-.16.65-1.05.93-1.28,1.28-5.69,3.52-11.37,9.35-14.11,15.39-.41.45-.88.84-1.28,1.28-11.98,13.38-30.74,33.73-30.78,52.58-.02,8.03-.22,11.82,5.13,17.95,2.34,2.69,10.09,8.34,11.54,10.26,1.88,2.5-.29,9.29.59,14.17,1.49,8.35,10.62,17.63,10.96,21.74.37,4.59-7.88,29.4-9.91,35.62-4.83,14.85-17.02,37.85-15.79,52.28,1.16,13.62,12.89,29.14,26.98,31.36-14.12,14.63-27.29,35.54-26.93,56.42C-.75,327.78,7.59,169.97,118.39,83.98,223.29,2.57,378.54,34.76,446.53,146.88c52.97,87.35,42.29,208.31-32.6,279.45Z"/>
  <path class="st2" d="M195.93,334c1.59,47.32,76.35,47.54,76.94,0,24.61,2.8,52.87,11.48,71.81,28.21,8.36,7.39,15.14,19.31,21.8,28.21-1.33,1.32-5.13,11.09-5.14,13.45-.01,3.78,2.51,7.66,2.57,11.55.18,11.07-5.09,22.27-3.91,34.69.41,4.3,2.26,6.77,2.63,10.83.08.84-.05,1.72,0,2.56-12.17,9.99-27.54,14.74-42.32,19.23,14.23-14.45,31.08-34.79,33.35-55.77,5.17-47.87-21.15-65.1-66.04-60.91-51.52,4.81-112.05,72.03-75.03,121.81-48.19-8.8-81.2-27.14-115.41-61.55-.36-20.89,12.8-41.8,26.93-56.42,18.89-19.56,45.05-32.02,71.81-35.91Z"/>
  <path class="st7" d="M320.32,482.75c-38.85,11.81-67.92,12.4-107.72,5.13-37.02-49.78,23.51-117,75.03-121.81,44.88-4.19,71.2,13.03,66.04,60.91-2.27,20.99-19.12,41.32-33.35,55.77ZM287.81,389.59c-16.72-15.21-39.33,11.86-23.97,25.89,14.95,13.66,40.82-10.57,23.97-25.89ZM312.25,397.1c-15.43,3.5-15.2,31.49,3.92,34.1,24.97,3.41,27.3-41.19-3.92-34.1ZM235.33,425.34c-4.1.85-10.44,6.09-11.77,10.02-8.16,24.14,28.54,31.2,34.22,13.7s-6.36-27.06-22.44-23.72ZM291.76,449.71c-18.81,3.44-16.91,26.84,5.56,22.21,18.89-3.9,17.39-26.41-5.56-22.21Z"/>
  <path class="st4" d="M379.3,385.29c7.83-.79,20.9,1.02,26.93,6.41,1.44,1.29,5.21,9.26,5.84,11.47,1.82,6.4,1.98,16.95,1.85,23.15-.01.67-2.22,2.92-2.61,4.41-3.86,14.87-12.04,31.08-28.16,35.34-11.57,3.06-10.71-1.99-17.95-2.56.41-2.69.07-2.87-2.56-2.56-.38-4.06-2.23-6.53-2.63-10.83-1.18-12.42,4.09-23.63,3.91-34.69-.06-3.89-2.58-7.77-2.57-11.55,0-2.36,3.81-12.13,5.14-13.45.41-.4,9.53-4.98,10.26-5.13s1.73.08,2.56,0Z"/>
  <path class="st8" d="M362.63,460.95c2.63-.31,2.97-.13,2.56,2.56,7.24.57,6.38,5.62,17.95,2.56,1.01,7.65-2.46,20.2-12.06,19.22-11.62-1.18-6.96-14.71-5.89-21.79-.85-.07-1.72.04-2.56,0-.05-.85.08-1.72,0-2.56Z"/>
  <path class="st4" d="M244.66,148.06c.79-.15,1.76.14,2.56,0,1.27,4.51,7.2,8.44,10.94,11.5,19.05,15.65,42.96,31.92,66.97,38.18,7.78,2.03,10.98-.55,18.26,6.74,8.57,8.58,10.83,26.52,5.13,37.19-4.55,8.52-18.6,15.37-28.16,14.16-2.87,17.75-15.17,35.98-28.94,47.36-3.25,2.68-17.37,10.65-17.93,11.57-1.81,2.97-.03,10.38-.63,14.12-.15-2.93-2.59-8.59-1.29-12.82-1.07-1.11-13.81,4.16-16.4,4.74-16.63,3.7-42.21,2.1-57.96-4.75s-35.28-27.95-42.15-44.41c-1.17-2.79-2.81-11.97-3.94-12.73-1.2-.81-11.88-1.37-15.45-2.5-4.27-1.35-8.16-5.12-12.84-5.76-.33-4.1-9.46-13.39-10.96-21.74-.87-4.87,1.3-11.66-.59-14.17l19.23-11.54c20.18,1.17,40.27-6.5,57.73-16,15.31-8.33,31.51-20.55,41.01-35.29,5.2-1.38,10.05-2.85,15.39-3.85Z"/>
  <path class="st5" d="M260.05,65.99c1.59.25,2.73,1.04,3.85,1.28.68,2.15,2.43,3.4,3.85,1.28.73.21,1.91-.23,2.56,0-.14,3.04,1.82,3.32,3.8,4.54,5.14,3.15,12.45,6.69,18,9.57.85.44,1.71.85,2.56,1.28.42.43.88.84,1.28,1.28,15.89,17.85,20.54,37.67,11.5,60.25-12.49-1.19-26.01-4.6-38.43-1.26-3.78-.21-4.25.84-6.41,1.28-5.6-1.09-12.77.24-17.95,2.56-5.34,1-10.19,2.47-15.39,3.85-34.89,9.27-70.03,29.64-98.74,51.29l-19.23,11.54c-1.45-1.92-9.2-7.57-11.54-10.26-3.13-10.18-3.68-19.32,0-29.49,2.74-5.81,6.03-11.44,8.13-17.53l17.51-23.51c.4-.45.88-.84,1.28-1.28,4.41-4.85,10.52-9.97,14.11-15.39.23-.35,1.13-.63,1.28-1.28l1.26-.64-1.26-.64c-.24-.78-1.03-.94-1.28-1.28-2.07-2.83-2.53-1.45-3.85-6.41-1.2-9.46,1.78-9.64,10.26-8.98.71.37,6.12,3.61,6.41,3.85.33.27-1.09,3.5,1.91,2.57,1.38.11.32-2.21.65-2.57,1.16-1.25,3.72-2.59,5.13-3.85l35.91-24.36c7.65-3.11,16.17-6.42,24.36-7.69,11.4-1.77,27.07-1.77,38.47,0Z"/>
  <path class="st7" d="M197.21,316.04c1.2,5.98-1.47,12.48-1.28,17.95-26.76,3.88-52.92,16.34-71.81,35.91-14.09-2.22-25.82-17.74-26.98-31.36-1.23-14.43,10.96-37.43,15.79-52.28,2.02-6.22,10.28-31.02,9.91-35.62,4.68.64,8.56,4.41,12.84,5.76,3.58,1.13,14.26,1.69,15.45,2.5,1.13.77,2.77,9.94,3.94,12.73,6.87,16.46,25.73,37.27,42.15,44.41Z"/>
  <path class="st7" d="M344.68,362.21c-18.94-16.73-47.2-25.42-71.81-28.21.02-1.7.09-3.44,0-5.13.59-3.74-1.18-11.15.63-14.12.55-.91,14.68-8.88,17.93-11.57,13.77-11.38,26.07-29.6,28.94-47.36,9.56,1.22,23.61-5.63,28.16-14.16,3.26,14.12,4.2,29.98,8.04,43.9,4.34,15.74,15.12,30.9,13.81,47.85-1.04,13.42-11.11,28.1-25.69,28.8Z"/>
  <path class="st8" d="M438.29,269.88c1.6,16.01-2.27,20.76-11.54,32.06l-5.24,2.13c-4.21,20.01-6.8,40.49-10.15,60.7-1.49,8.99-3.4,17.99-5.13,26.93-6.03-5.39-19.1-7.2-26.93-6.41,3.55-20.82,10.88-40.8,15.39-61.55.37-1.72.94-3.4,1.28-5.13,2.62-5.69,9.09-18.01,1.28-21.8-.2-.31.21-1.13,0-1.28l-2.56-3.85c-3.17-17.64.18-18.02,8.98-30.78,7.86,14.05,21.02,20.44,34.62,8.98Z"/>
  <path class="st7" d="M269.02,144.21c11.32.63,28.56-.35,39.75,2.56,21.71,5.64,35.16,37,34.62,57.7-7.29-7.29-10.48-4.71-18.26-6.74-24.02-6.25-47.92-22.53-66.97-38.18-3.73-3.07-9.67-7-10.94-11.5,5.21-.89,10.47-1.56,15.39-2.56,2.16-.44,2.63-1.49,6.41-1.28Z"/>
  <path class="st0" d="M403.67,260.9c5.86-8.5,11.62-15.42,15.38-25.03,2.13-5.46,3,.98,4.44,3.27,6.04,9.56,13.63,18.99,14.81,30.74-13.6,11.46-26.76,5.08-34.62-8.98Z"/>
  <path class="st8" d="M197.21,73.68l-35.91,24.36c-.12-2.91,1.79-3.42,3.44-4.89,8.69-7.76,21.75-15.12,32.46-19.47Z"/>
  <path class="st1" d="M426.75,301.94c-1.25,1.52-3.44,2.56-3.81,3.55-3.58,9.63-4.72,29.11-6.82,40.32-1.15,6.1-2.33,13.33-4.75,18.97,3.35-20.21,5.94-40.69,10.15-60.7l5.24-2.13Z"/>
  <path class="st1" d="M295.95,85.22c4.49,1.77,9.01,9.41,11.29,13.72,9.17,17.36,8.24,29.84,1.54,47.83-11.19-2.91-28.43-1.93-39.75-2.56,12.41-3.34,25.94.08,38.43,1.26,9.04-22.58,4.39-42.4-11.5-60.25Z"/>
  <path class="st1" d="M260.05,65.99c-11.4-1.77-27.07-1.77-38.47,0,8.7-3.68,21.91-3.21,31.47-2.62,2.66.16,5.32.03,7,2.62Z"/>
  <path class="st8" d="M99.76,204.48c-5.35-6.13-5.15-9.92-5.13-17.95,1.03-4.21,3.34-7.76,5.13-11.54-3.68,10.18-3.13,19.32,0,29.49Z"/>
  <path class="st1" d="M125.4,133.95l-17.51,23.51c-2.11,6.09-5.39,11.71-8.13,17.53-1.78,3.78-4.1,7.33-5.13,11.54.04-18.84,18.8-39.2,30.78-52.58Z"/>
  <path class="st1" d="M153.61,101.9c.18.22,1.86-.14,2.56,0-.34.36.73,2.69-.65,2.57-3,.93-1.58-2.3-1.91-2.57-.29-.24-5.7-3.48-6.41-3.85-8.97-4.63-12.6.14-10.26,8.98,1.31,4.96,1.78,3.58,3.85,6.41-15.66-7.05-3.6-27.1,10.97-15.42,1.85,1.48,1.5,3.47,1.85,3.88Z"/>
  <path class="st1" d="M395.97,318.61c.29-1.45-.04-3.49.31-5.4,1.25-6.94,5.66-8.99.97-16.4,7.81,3.79,1.34,16.11-1.28,21.8Z"/>
  <path class="st8" d="M270.31,68.55c4.56,1.57,15.31,7.3,19.23,10.26l2.56,3.85c-5.55-2.87-12.86-6.42-18-9.57-1.98-1.21-3.94-1.5-3.8-4.54Z"/>
  <path class="st1" d="M379.3,385.29c-.84.08-1.82-.16-2.56,0l17.95-61.55c-4.51,20.75-11.83,40.73-15.39,61.55Z"/>
  <path class="st1" d="M140.79,117.28c-3.59,5.42-9.69,10.54-14.11,15.39,2.74-6.04,8.41-11.86,14.11-15.39Z"/>
  <path class="st1" d="M397.26,295.53c-.41-.29-2.28.33-2.56,0-.33-.39.18-2.8,0-3.85l2.56,3.85Z"/>
  <path class="st8" d="M267.74,68.55c-1.42,2.11-3.17.86-3.85-1.28,1.01.22,2.55.91,3.85,1.28Z"/>
  <path class="st1" d="M294.67,83.94c-.85-.43-1.72-.84-2.56-1.28l-2.56-3.85c2.64,1.99,3.18,3.12,5.13,5.13Z"/>
  <path class="st1" d="M142.07,116c.07-.29.08-1.01,0-1.28l1.26.64-1.26.64Z"/>
  <path class="st10" d="M197.21,316.04c15.75,6.84,41.33,8.45,57.96,4.75,2.59-.58,15.34-5.85,16.4-4.74-1.3,4.23,1.14,9.89,1.29,12.82.09,1.69.02,3.43,0,5.13-.59,47.54-75.35,47.32-76.94,0-.18-5.47,2.48-11.97,1.28-17.95Z"/>
  <path class="st0" d="M235.33,425.34c16.09-3.34,27.83,7.11,22.44,23.72-5.68,17.5-42.38,10.44-34.22-13.7,1.33-3.93,7.68-9.17,11.77-10.02Z"/>
  <path class="st9" d="M312.25,397.1c31.22-7.09,28.9,37.51,3.92,34.1-19.12-2.61-19.35-30.6-3.92-34.1Z"/>
  <path class="st6" d="M287.81,389.59c16.84,15.32-9.02,39.55-23.97,25.89-15.36-14.03,7.25-41.1,23.97-25.89Z"/>
  <path class="st2" d="M291.76,449.71c22.94-4.2,24.45,18.3,5.56,22.21-22.47,4.64-24.37-18.76-5.56-22.21Z"/>
  <path class="st7" d="M229.27,151.91c-9.5,14.74-25.69,26.96-41.01,35.29-17.46,9.5-37.55,17.17-57.73,16,28.71-21.65,63.85-42.02,98.74-51.29Z"/>
  <path class="st3" d="M262.61,145.49c-4.92,1-10.18,1.67-15.39,2.56-.8.14-1.77-.15-2.56,0,5.18-2.32,12.36-3.65,17.95-2.56Z"/>
  <path class="st8" d="M147.2,98.05c-8.48-.66-11.46-.48-10.26,8.98-2.34-8.83,1.28-13.61,10.26-8.98Z"/>
</svg>