<?xml version="1.0" encoding="UTF-8"?>
<svg id="Layer_1" xmlns="http://www.w3.org/2000/svg" version="1.1" viewBox="0 0 512 512">
  <!-- Generator: Adobe Illustrator 29.5.0, SVG Export Plug-In . SVG Version: 2.1.0 Build 137)  -->
  <defs>
    <style>
      .st0 {
        fill: #fa7116;
      }

      .st1 {
        fill: #f9ab62;
      }

      .st2 {
        fill: #f2f2f2;
      }

      .st3 {
        fill: #fb003f;
      }

      .st4 {
        fill: #fcbb7a;
      }

      .st5 {
        fill: #faf1e8;
      }

      .st6 {
        fill: #38494f;
      }

      .st7 {
        fill: #653b22;
      }

      .st8 {
        fill: #e6e6e6;
      }
    </style>
  </defs>
  <path class="st3" d="M465.69,367.56c-2.06-.95-3.03-1.23-5.35-1.34.17-3.76-.3-7.59.02-11.35.74-8.6,9.38-33.1.06-36.21l-100.99-13.96c-8.42,1.49-8.47,19.41-9.6,26.52-.29,1.82-1.72,3.53-1.83,4.24-8.92-3.95-18.58-6.16-28.08-8.02-8.76-1.72-17.69-4.06-26.75-2.67,0-.18-1.39-1.56-1.38-3.25.03-5.88-.72-14.07.05-19.49.17-1.2-.01-1.61.95-2.68,3.61-4.02,13.89-8.72,19.15-13.99,12.94-12.98,21.48-31.8,22.77-50.11,26.03,2.12,42.86-31.94,27.26-52.16-3.08-4-11.56-8.84-16.64-8.1,3.45-16.28,9.82-34.72,8.03-51.5-1-9.39-7.87-30.85-14.72-37.44-5.95-5.73-14.71-4.33-18.75-6.66-.93-.54-7.21-13.92-11.3-18.12-28.86-29.63-117.43-29.63-135.39,10.48-1.39,3.1-.95,7.65-3,10.37-1.54,2.04-5.35,2.72-7.43,4.61-21.46,19.5-11.98,63.52-4.68,88.26-13.58-2.33-23.62,12.68-24.12,24.81-.56,13.5,8.7,28.74,20.59,34.87,5.39,2.78,12.49-1.42,14.93,1.82.74.98,5.17,17.98,7.09,22.32,6.14,13.86,14.71,23.09,25.63,33.22,2.38,2.21,10.49,6.82,11.39,8.67,2.25,4.57-.26,15.87.66,21.41-.01.45.01.89,0,1.34-9.51,1.42-18.9,2.11-28.08,4.01-34.39,7.11-60.16,22.11-82.95,48.78-4.64,5.43-19.49,26.38-18.69,32.8C12.26,334.53,1.45,214.14,55.37,125.09,114.48,27.45,237.13-17.45,344.91,24.94c134.98,53.09,194.85,215.97,120.78,342.62ZM422.59,186.06c-62.64,5.9-52.58,100.47,11.53,93.1,57.7-6.64,50.03-98.89-11.53-93.1Z"/>
  <path class="st5" d="M460.34,366.23c-20.13-.93-20.64,12.39-23.68,27.81-1.8,9.12-6.61,34.31-5.64,42.27.45,3.71,2.47,7.14,4.69,10.04.95,1.24,8.01,7.96,8.58,8.14-1.72,9.62-.38,28.21-13.01,29.12-25.39-3.74-50.78-7.18-76.09-11.57-3.28-.57-6.99.35-9.87-.16-6.26-1.13-14.78-3.44-14.79-11.38,5.81-37.89,11.52-75.88,17.29-113.83.57-3.75-.35-7.81.17-11.2.11-.7,1.54-2.41,1.83-4.24,1.13-7.11,1.19-25.03,9.6-26.52l100.99,13.96c9.32,3.1.68,27.61-.06,36.21-.32,3.76.15,7.59-.02,11.35ZM420.77,345.63c-14.07-21.81-42.03-9.85-37.91,15.83,3.43,21.36,46.97,20.01,41.06-11.71-.63-3.4-2.45-3.04-3.15-4.12ZM424.22,406.35c2.21-8.2,2.41-15.55-5.27-20.8-6.48-4.44-31.54-7.43-39.25-5.67-5.12,1.17-16.1,11.73-12.4,17.16,2.94,4.31,48.92,6.57,56.91,9.31ZM360.91,414.51c-3.17,1.05-3.44,7.85.06,8.96,15.53.97,32.72,6.16,47.94,6.97,7.67.41,10.32-3.61,5.03-9.12l-53.03-6.81ZM395.93,451.61c2.68-1.7,1.96-7.04-2.42-8.53-5.02-1.71-30.83-5.5-35.48-4.62-3.53.67-4.63,3.91-2.74,6.74,1.31,1.96,38.3,7.9,40.64,6.41Z"/>
  <path class="st6" d="M348,335.47c-.53,3.39.4,7.45-.17,11.2-5.77,37.95-11.48,75.94-17.29,113.83.01,7.95,8.53,10.26,14.79,11.38-2.57,2.06-5.2,2-8.02,2.67-4.08.98-8.63,1.09-12.04,4.01-.43.08-.91-.08-1.34,0-24.08,4.65-40,6.31-64.19,6.69,6.48-16.81,12.27-34.01,18.72-50.82,13.68-35.68,28.8-70.9,41.46-106.99,9.5,1.86,19.16,4.07,28.08,8.02Z"/>
  <path class="st2" d="M460.34,366.23c2.32.11,3.29.38,5.35,1.34,21.87,10.11,16.65,39.79,10.9,58.37-3.67,11.86-17.22,33.53-32.29,28.56-.56-.19-7.62-6.9-8.58-8.14-2.22-2.9-4.24-6.33-4.69-10.04-.98-7.96,3.83-33.16,5.64-42.27,3.05-15.42,3.56-28.74,23.68-27.81Z"/>
  <path class="st6" d="M84.54,409.02c17.46,17.99,36.12,34.6,57.95,47.04,30.39,17.32,64.75,27.69,99.86,29.19,1.99-1.88-16.22-41.27-17.81-47.08-.6-2.19-.5-5.24-.91-6.4l2.67,1.34c4.28,18.25,13.37,35.1,19.93,52.63,3.39,3.05,10.59-.43,13.51-.48,24.19-.38,40.12-2.04,64.19-6.69-1.32,2.21-3.69,2.25-5.84,2.85-75.24,21.28-181.65-5.34-230.01-67.2-.87-1.11-3.42-4.21-3.54-5.2Z"/>
  <path class="st6" d="M337.3,474.55c-3.44,2.77-7.88,3.24-12.04,4.01,3.4-2.92,7.96-3.04,12.04-4.01Z"/>
  <path class="st2" d="M158.09,174.98c2.62.45,11.25,5.9,14.04,2.75l21.58-55.03c1.27-.91,26.19-2.46,30.51-2.62,22.21-.81,54.8-1.99,76.35.01,5.42.5,8.63.81,11.59,5.8,4.24,7.17,16.33,50.09,18.64,51.56,4.32,2.75,11.57-2.05,14.52-2.48,5.08-.74,13.56,4.11,16.64,8.1,15.6,20.22-1.24,54.28-27.26,52.16-1.3,18.31-9.84,37.13-22.77,50.11-5.26,5.28-15.55,9.98-19.15,13.99-.96,1.07-.78,1.48-.95,2.68-19.31,7.58-38.24,12.81-59.14,7.65-6.28-1.55-10.76-5.73-17.08-6.31-.25,5.13.31,10.35.05,15.49-.09,1.76-1.39,3.05-1.4,3.23-.92-5.54,1.59-16.84-.66-21.41-.91-1.84-9.01-6.45-11.39-8.67-10.92-10.13-19.48-19.36-25.63-33.22-1.92-4.34-6.35-21.34-7.09-22.32-2.44-3.23-9.54.96-14.93-1.82-11.89-6.13-21.15-21.37-20.59-34.87.5-12.13,10.54-27.14,24.12-24.81Z"/>
  <path class="st7" d="M345.32,174.98c-2.95.43-10.2,5.23-14.52,2.48-2.31-1.47-14.41-44.4-18.64-51.56-2.95-4.99-6.16-5.3-11.59-5.8-21.54-2-54.13-.82-76.35-.01-4.31.16-29.24,1.7-30.51,2.62l-21.58,55.03c-2.8,3.15-11.42-2.3-14.04-2.75-7.3-24.74-16.78-68.76,4.68-88.26,2.08-1.89,5.89-2.56,7.43-4.61,2.05-2.72,1.61-7.28,3-10.37,17.96-40.1,106.53-40.11,135.39-10.48,4.09,4.2,10.37,17.59,11.3,18.12,4.04,2.33,12.8.93,18.75,6.66,6.85,6.59,13.72,28.05,14.72,37.44,1.78,16.78-4.59,35.22-8.03,51.5Z"/>
  <path class="st6" d="M186.18,327.44c-.39,2.78.14,5.03,1.05,7.63,11.21,32.36,25.07,64.43,36.4,96.68.41,1.17.31,4.21.91,6.4,1.58,5.81,19.8,45.2,17.81,47.08-35.11-1.5-69.46-11.87-99.86-29.19-21.82-12.43-40.49-29.04-57.95-47.04-.8-6.42,14.05-27.37,18.69-32.8,22.79-26.67,48.56-41.67,82.95-48.78Z"/>
  <path class="st3" d="M422.59,186.06c61.56-5.8,69.23,86.46,11.53,93.1-64.1,7.38-74.17-87.2-11.53-93.1ZM446.59,215.34c-4.72,1.4-22.58,22.81-25.97,23.7-4.51,1.18-13.8-13.97-20.47-9.94-10.11,6.12,7.49,29.38,18.04,28.9,5.75-.26,34.11-26.24,36.1-30.88,2.72-6.34-.06-14.06-7.7-11.78Z"/>
  <path class="st5" d="M319.91,327.44c-12.66,36.09-27.77,71.31-41.46,106.99l-18.47-53.16c3.08-10.02,8.2-14.2,9.11-25.74v-1.34c0-.89,0-1.78,0-2.67,10-2.53,23.95-16.05,24.07-26.75,9.06-1.39,17.99.96,26.75,2.67Z"/>
  <path class="st5" d="M214.26,323.43c-.37,13.34,9.74,21.93,21.4,25.41-2.75,11.33,3.77,20.92,9.3,30.08l-18.66,54.18-2.67-1.34c-11.33-32.25-25.19-64.32-36.4-96.68-.9-2.6-1.44-4.85-1.05-7.63,9.18-1.9,18.57-2.59,28.08-4.01Z"/>
  <path class="st8" d="M291.83,302.03c-.77,5.42-.01,13.61-.05,19.49,0,1.69,1.39,3.07,1.38,3.25-.13,10.7-14.08,24.21-24.07,26.75-9.26,2.35-24.33.05-33.43-2.67-11.66-3.48-21.77-12.07-21.4-25.41.01-.45-.01-.89,0-1.34,0-.18,1.31-1.47,1.4-3.23.25-5.14-.3-10.36-.05-15.49,6.32.58,10.8,4.76,17.08,6.31,20.9,5.16,39.84-.08,59.14-7.65Z"/>
  <path class="st6" d="M420.77,345.63c.69,1.08,2.51.72,3.15,4.12,5.92,31.72-37.63,33.07-41.06,11.71-4.12-25.68,23.84-37.65,37.91-15.83Z"/>
  <path class="st6" d="M424.22,406.35c-7.99-2.74-53.97-5-56.91-9.31-3.7-5.43,7.28-15.99,12.4-17.16,7.71-1.76,32.76,1.23,39.25,5.67,7.68,5.26,7.48,12.6,5.27,20.8Z"/>
  <path class="st4" d="M360.91,414.51l53.03,6.81c5.28,5.51,2.64,9.52-5.03,9.12-15.22-.81-32.41-6-47.94-6.97-3.5-1.11-3.23-7.92-.06-8.96Z"/>
  <path class="st4" d="M395.93,451.61c-2.35,1.49-39.33-4.45-40.64-6.41-1.89-2.83-.79-6.08,2.74-6.74,4.65-.88,30.46,2.91,35.48,4.62,4.38,1.49,5.1,6.83,2.42,8.53Z"/>
  <path class="st0" d="M269.09,351.51c0,.89,0,1.78,0,2.67,0,.44.03.9,0,1.34-.91,11.54-6.03,15.72-9.11,25.74l18.47,53.16c-6.45,16.81-12.25,34.01-18.72,50.82-2.92.05-10.12,3.52-13.51.48-6.56-17.54-15.64-34.39-19.93-52.63l18.66-54.18c-5.54-9.16-12.05-18.75-9.3-30.08,9.11,2.72,24.18,5.02,33.43,2.67Z"/>
  <path class="st3" d="M446.59,215.34c7.64-2.28,10.41,5.44,7.7,11.78-1.99,4.64-30.35,30.62-36.1,30.88-10.56.48-28.15-22.78-18.04-28.9,6.67-4.04,15.96,11.12,20.47,9.94,3.39-.89,21.25-22.29,25.97-23.7Z"/>
  <path class="st1" d="M269.09,355.53c.03-.44,0-.89,0-1.34v1.34Z"/>
</svg>