<?xml version="1.0" encoding="UTF-8"?>
<svg id="Layer_1" xmlns="http://www.w3.org/2000/svg" version="1.1" viewBox="0 0 512 512">
  <!-- Generator: Adobe Illustrator 29.5.0, SVG Export Plug-In . SVG Version: 2.1.0 Build 137)  -->
  <defs>
    <style>
      .st0 {
        fill: #fa7116;
      }

      .st1 {
        fill: #dfca47;
      }

      .st2 {
        fill: #f2f2f2;
      }

      .st3 {
        fill: #007fd9;
      }

      .st4 {
        fill: #4b374d;
      }

      .st5 {
        fill: #fdce0c;
      }

      .st6 {
        fill: #653b22;
      }

      .st7 {
        fill: #3ca2cf;
      }

      .st8 {
        fill: #e6e6e6;
      }
    </style>
  </defs>
  <path class="st3" d="M420.29,434.93c.85-19.79-6.56-43.43-17.66-59.79l-20.38-144.05c5.06-9.87,7.52-34.67-6.8-38.04-.95-20.51-2.92-44.01-12.23-62.51-.11-.42.12-.94,0-1.36-1.71-5.95-4.21-13.78-9.51-17.66-.19-.35.18-1,0-1.36-1.76-3.49-4.15-6.09-6.8-9.51-.39-.51-.96-.88-1.36-1.36-.18-.22.28-1.55-.38-2.32l-15.93-13.99c-.44-.47-.89-.92-1.36-1.36-10.82-10.11-28.75-18.77-43.49-21.74-1.63-1.96-3.99-2.13-6.29-2.54-30.96-5.47-64.57,1.2-88.83,21.57-.28.23-2.51,2.66-4.08,4.08-3.87.11-5.48,3.66-6.8,6.8-.44.45-.94.89-1.36,1.36-1.19,1.35-2.67,1.47-4.08,4.08-.78,1.43-.86,3.17-1.36,4.08-3.95,1.95-4.21,3.02-6.84,7.44-9.47,15.95-14.93,32.67-17.62,51-4.72,11.08-3.14,23.87-4.08,35.33-.4,4.92-.78,4.34-2.72,8.15-.12.24-1.95.54-2.45,2.24-1.16,3.99-1.29,16.38,2.45,19.49.01.91-.02,1.81,0,2.72.23,9.55-1.69,14.32-2.57,22.57-3.5,32.45-8.11,64.66-11.01,97.03-.14,1.33.12,2.74,0,4.08-1.16,3.14-2.62,6.99-2.77,10.31-.18,3.61,1.2,4.52,1.42,5.99.11.7.13,2.06,0,2.72-.43.47-.93.88-1.36,1.36-15.81,17.9-25.59,42.49-24.46,66.59C-45.25,303.21,15.92,59.3,209.64,19.76c239.29-48.85,389.7,245.08,210.65,415.17Z"/>
  <path class="st5" d="M216.45,328.93c10.76.83,5.38,4.25,7.1,12.61,1.45,7.04,8.76,13.34,15.06,16.2,22.44,10.21,52.25,5.83,60.74-19.29.44-1.3,3.38-3.79,0-5.43v-2.72c11.79-1.42,22.68,1.66,33.98,4.08,24.52,5.23,46.84,14.63,63.87,33.98.42.48.96.88,1.36,1.36.59.71,3.57,4.69,4.08,5.43,11.1,16.36,18.52,40.01,17.66,59.79-16.28,15.47-27.64,24.37-47.56,35.33-3.1-.95-2.64-3.5-2.79-6.03-.71-11.76,6.35-57.79,1.56-64.07-1.55-2.03-6.41-2.98-8.96-3.27l-49.6-1.36c-.08-6.29-.23-12.98-7.76-14.66-15.14-3.37-40.63-1.87-56.81-1.66-2.31.03-6.03-.86-7.45,1.39-4.51-.09-9.07.04-13.59,0-2.87-1.62-8.27-2.45-11.58-2.69-11.25-.84-31.74-3.01-42.03-1.3-8.29,1.37-9.71,9.76-10.32,16.85-1.36,15.96-.18,36.63.02,53.07.03,2.31-.86,6.03,1.39,7.45-.06,4.51.16,9.08,0,13.59-.18,5.09,2.08,9.85-4.08,10.87-26.36-12.66-39.9-22.59-61.15-42.13-1.13-24.1,8.65-48.7,24.46-66.59.7-.18,1.21-.63,1.36-1.36,20.35-21.79,61.03-41.72,91.05-39.41v-.02Z"/>
  <path class="st7" d="M227.31,380.57c4.51.04,9.07-.09,13.59,0,21.86.45,43.86,1.64,65.69,2.94,5.24,1.73,3.47,15.5,3.61,20.16.14,4.51-.06,9.08,0,13.59.01.91,0,1.81,0,2.72.1,9.49-.16,19.05,0,28.54l-1.36,13.59c-25.86-6.59-56.91,6.29-42.13,36.69-14.93.28-31.46.53-46.21-1.36-2.47-7.64,2.94-14.33-1.96-21.82-5.73-8.77-17.6-6.62-26.58-6.72-4.51-2.48-12.1-1.37-17.66-1.36h-9.51c.16-4.5-.06-9.08,0-13.59.31-24.05.54-48.27,3.3-72.12.93-1.37,2.65-1.15,4.1-1.33,15.16-1.85,38.98-.08,55.1.07h.01Z"/>
  <path class="st0" d="M372.73,470.27c-10.43,5.73-20.04,10.73-31.26,14.95-.47-19.09-14.8-23.16-31.26-23.1-.06-4.51.08-9.08,0-13.59-.16-9.49.1-19.05,0-28.54l1.35-2.03-1.35-.7c-.06-4.51.14-9.08,0-13.59,4.15,1.23,2.76-4.39,2.72-8.15l49.6,1.36c2.55.29,7.41,1.24,8.96,3.27,4.79,6.28-2.27,52.3-1.56,64.07.16,2.54-.31,5.09,2.79,6.03v.02Z"/>
  <path class="st2" d="M374.08,193.04c.43.09.93-.1,1.36,0,14.32,3.38,11.85,28.19,6.8,38.04-.11.22-2.54,3.86-2.72,4.08-7.54,9.61-19.63,12.35-31.23,9.54-2.01,28.42-23.62,49.71-48.28,61.11-1.52,2.49-.67,17.42-.67,21.76v1.36c-4.1.77-2.63-2.08-2.72-4.69-.19-5.68.14-11.39-.01-17.05-22.7,10.51-49.04,8.23-72,0l-.02,20.38c-.32.52-2.28-1.41-2.71-1.36-1.74-3.7,1.95-19.48,1.34-20.3-.44-.6-10.73-4.55-13.45-6.31-19.76-12.91-31.72-32.55-34.11-56.29-10.8,4.09-26.21-3.27-32.6-12.22-.52-.74.5-5.02-2.72-5.43-.02-.91.01-1.81,0-2.72-.1-6.53-3.47-14.5,0-21.74,1.94-3.81,2.32-3.23,2.72-8.15h1.36c.2.93.1,1.5,1.36,1.36,6.81-2.82,16.83-1.21,23.53-2.75.54-.12,6.53-2.21,9.45-3.01,12.31-3.39,31.19-13.04,41.65-20.86,19.27-14.4,34.8-34.11,40.89-57.64,4,4.48,4.49,11.85,7.17,17.94,13.34,30.26,50.61,58.46,83.32,63.45,6.56,1,15.56.04,22.28,1.5h-.02Z"/>
  <path class="st6" d="M220.53,63.94c14.63-3.75,33.22-5.15,48.3-4.14,22.17,1.49,40.52,10.73,59.06,21.8.47.43.92.9,1.36,1.36l16.31,16.31c.39.49.96.85,1.36,1.36,1.52,3.08,3.22,10.17,6.8,9.51.18.37-.19,1,0,1.36,3.06,5.87,4.61,12.93,9.51,17.66.12.42-.11.94,0,1.36,5.6,20.33,7.46,41.74,10.87,62.51-6.72-1.45-15.71-.5-22.28-1.5-32.71-4.99-69.98-33.19-83.32-63.45-2.68-6.09-3.17-13.46-7.17-17.94-6.1,23.53-21.62,43.23-40.89,57.64-10.46,7.82-29.35,17.48-41.65,20.86-2.92.8-8.9,2.88-9.45,3.01-6.7,1.53-16.72-.08-23.53,2.75,1.92-16.37,1.95-33.19,5.81-49.23,4.05-16.82,12.04-31.25,20.01-45.9,3.47-1.71,15.04-15.81,20.38-20.38,8.69-7.42,17.05-12,28.54-14.95l-.03-.02Z"/>
  <path class="st6" d="M143.06,231.09c6.39,8.96,21.81,16.31,32.6,12.22,2.38,23.74,14.34,43.38,34.11,56.29,2.72,1.77,13.01,5.72,13.45,6.31.61.82-3.07,16.6-1.34,20.3-.69.07-4.36,2.08-5.43,2.72-30.02-2.31-70.71,17.62-91.05,39.41.13-.65.11-2.02,0-2.72,1.51-4.27,1.95-10.02,2.27-14.57.07-1.02-.92-1.64-.91-1.73.12-1.34-.14-2.75,0-4.08,1.37-12.31,5.18-25.95,6.8-38.04.45-3.4,1.05-6.99,1.36-10.87.03-.45-.06-.92,0-1.36,4.08-16.61,5.54-34.46,6.8-51.64.3-4.14.28-8.18,1.36-12.23h-.02Z"/>
  <path class="st6" d="M143.06,231.09c-1.08,4.05-1.05,8.09-1.36,12.23-1.94,10.1-4.12,20.52-5.23,30.77-.73,6.75-.75,14.46-1.55,20.87-.06.44.03.91,0,1.36-2.72,2.35-.93,7.46-1.36,10.87-1.62,12.1-5.42,25.74-6.8,38.04,2.91-32.37,7.52-64.58,11.01-97.03.89-8.25,2.81-13.02,2.57-22.57,3.22.41,2.2,4.7,2.72,5.43h.01Z"/>
  <path class="st6" d="M191.98,78.88c-5.36,4.57-16.92,18.67-20.38,20.38-7.97,14.65-15.97,29.07-20.01,45.9-3.86,16.05-3.89,32.87-5.81,49.23-1.26.13-1.16-.43-1.36-1.36-1.25-5.95,1.65-28.05,2.72-35.33,2.69-18.33,8.15-35.05,17.62-51,2.63-4.42,2.88-5.49,6.84-7.44.49-.91.59-2.65,1.36-4.08l4.08-4.08c.42-.48.91-.91,1.36-1.36,2.24-2.25,4.44-4.68,6.8-6.8,1.57-1.41,3.8-3.85,4.08-4.08h2.72v.02Z"/>
  <path class="st6" d="M284.4,59.86c14.74,2.97,32.67,11.63,43.49,21.74-18.54-11.07-36.89-20.31-59.06-21.8-15.07-1.01-33.68.38-48.3,4.14,1.36-2.38,3.8-2.25,6.05-2.77,19.14-4.48,38.48-5.19,57.82-1.3h0Z"/>
  <path class="st6" d="M375.45,193.04c-.43-.1-.92.09-1.36,0-3.4-20.78-5.27-42.18-10.87-62.51,9.31,18.5,11.28,41.99,12.23,62.51Z"/>
  <path class="st6" d="M402.62,375.14c-.51-.74-3.49-4.72-4.08-5.43-1.32-19.62-5.22-38.83-6.8-58.44-.09-1.11.12-2.26-.01-3.37-.23-.68-.71-.77-1.34-.7l-6.8-46.21c-.82-8.32-.26-18.32-4.08-25.83.18-.22,2.61-3.86,2.72-4.08l20.38,144.05h.01Z"/>
  <path class="st6" d="M284.4,59.86c-19.34-3.89-38.68-3.18-57.82,1.3-2.26.53-4.7.4-6.05,2.77-11.49,2.95-19.85,7.53-28.54,14.95h-2.72c24.27-20.37,57.87-27.03,88.83-21.57,2.31.41,4.66.58,6.29,2.54h.01Z"/>
  <path class="st6" d="M144.87,198.09l-2.36.08c1.18-14.12-2.07-29.72,5.68-43.57-1.56,8.98-5.73,36.26-3.32,43.49h0Z"/>
  <path class="st6" d="M125.4,365.62c-.22-1.47-1.6-2.37-1.42-5.99.17-3.34,1.61-7.17,2.77-10.31,0,.1.98.71.91,1.73-.31,4.56-.75,10.3-2.27,14.57h.01Z"/>
  <path class="st2" d="M145.89,234c-10.68-5.32-10.33-26.44-7.01-33.23,1.42-2.91,6.66-3.42,7.01-3.83-9.91,12.33-.3,25.93,0,37.06Z"/>
  <path class="st6" d="M363.21,129.17c-4.9-4.73-6.45-11.8-9.51-17.66,5.3,3.88,7.81,11.71,9.51,17.66Z"/>
  <path class="st6" d="M329.24,82.96l15.93,13.99c.65.77.19,2.08.38,2.32l-16.31-16.31Z"/>
  <path class="st6" d="M346.9,100.63c2.64,3.43,5.03,6.01,6.8,9.51-3.58.65-5.28-6.42-6.8-9.51Z"/>
  <path class="st3" d="M185.19,82.96c-2.36,2.12-4.56,4.55-6.8,6.8,1.31-3.14,2.92-6.68,6.8-6.8Z"/>
  <path class="st7" d="M124.03,369.7c.42-.49.92-.89,1.36-1.36-.14.72-.65,1.18-1.36,1.36Z"/>
  <path class="st3" d="M172.96,95.19c1.41-2.61,2.89-2.73,4.08-4.08l-4.08,4.08Z"/>
  <path class="st6" d="M383.6,260.98c1.57,15.93,3.53,31.7,5.47,47.58.62-.17,1.12-1.35,1.33-1.37.63-.07,1.11.02,1.34.7.13,1.12-.08,2.27.01,3.37-2.32,2.21-1.57,7.25-1.34,10.18,1.26,15.63,5.43,31.24,6.78,46.89-17.03-19.35-39.35-28.74-63.87-33.98,1-3.71-4.26-3.27-6.51-3.66-9.02-1.53-18.27-3.09-27.47-3.14,0-4.35-.85-19.26.67-21.76,24.66-11.4,46.27-32.7,48.28-61.11,11.6,2.82,23.69.08,31.23-9.54,3.81,7.5,3.26,17.51,4.08,25.83h.01Z"/>
  <path class="st8" d="M221.88,326.21c.42-.04,2.38,1.89,2.71,1.36l.02-20.38c22.96,8.23,49.3,10.51,72,0,.17,5.66-.18,11.38.01,17.05.09,2.62-1.39,5.46,2.72,4.69v9.51c-8.49,25.13-38.29,29.51-60.74,19.29-6.29-2.86-13.61-9.16-15.06-16.2-1.72-8.36,3.66-11.78-7.1-12.61,1.08-.63,4.76-2.65,5.43-2.72h.01Z"/>
  <path class="st1" d="M227.31,380.57c-16.12-.14-39.95-1.92-55.1-.07-1.45.18-3.17-.04-4.1,1.33-2.76,23.85-2.99,48.07-3.3,72.12-2.25-1.42-1.35-5.16-1.39-7.45-.21-16.44-1.39-37.11-.02-53.07.61-7.11,2.03-15.49,10.32-16.85,10.29-1.71,30.77.45,42.03,1.3,3.29.24,8.7,1.08,11.58,2.69h-.01Z"/>
  <path class="st1" d="M312.93,395.52c.04,3.76,1.43,9.38-2.72,8.15-.16-4.66,1.63-18.43-3.61-20.16-21.83-1.3-43.83-2.48-65.69-2.94,1.42-2.25,5.16-1.35,7.45-1.39,16.18-.2,41.68-1.71,56.81,1.66,7.53,1.67,7.68,8.38,7.76,14.66h0Z"/>
  <path class="st6" d="M398.54,369.7c-.39-.48-.94-.88-1.36-1.36-1.33-15.66-5.51-31.26-6.78-46.89-.23-2.94-.98-7.97,1.34-10.18,1.57,19.6,5.48,38.82,6.8,58.44Z"/>
  <path class="st6" d="M299.34,327.57c9.19.06,18.44,1.61,27.47,3.14,2.25.39,7.52-.07,6.51,3.66-11.3-2.41-22.19-5.49-33.98-4.08v-2.73h0Z"/>
  <path class="st1" d="M299.34,338.45v-5.43c3.38,1.64.44,4.14,0,5.43Z"/>
  <path class="st1" d="M310.21,419.98c0-.91.01-1.81,0-2.72l1.35.7-1.35,2.03h0Z"/>
  <path class="st6" d="M134.91,294.96c.81-6.41.82-14.1,1.55-20.87,1.11-10.25,3.29-20.67,5.23-30.77-1.24,17.18-2.72,35.03-6.8,51.64h.01Z"/>
  <path class="st4" d="M133.55,307.19c.43-3.4-1.35-8.52,1.36-10.87-.31,3.88-.9,7.46-1.36,10.87Z"/>
  <path class="st6" d="M390.39,307.19c-.21.02-.71,1.21-1.33,1.37-1.94-15.88-3.89-31.65-5.47-47.58l6.8,46.21Z"/>
</svg>